#!OML:ASF F:\VICON\USERDATA\INSTALL\rory3\rory3.ASF
:FULLY-SPECIFIED
:DEGREES
47
root -0.5862789964151265 16.80807462039838 14.30593403560477 3.2343598699277787 -4.599780801718775 -3.5606679450211227
lfemur -29.794307983666634 12.749509789519898 -10.789973648544224
ltibia 117.83708911525463
lfoot 6.638597806841596 -11.267090894610293
ltoes -1.6200858335071349
rfemur -15.103491799292385 10.97485421341985 33.787693340570186
rtibia 56.7655100450612
rfoot -25.026054043678638 -15.103106763809715
rtoes 2.387572570501095
lowerback 17.776882588089112 0.9497132882298233 3.5610765544555067
upperback 0.5675757818423708 2.29357331296481 2.9916134980611333
thorax -8.620939216764572 0.9721319127940568 -0.08692520496647646
lowerneck -19.6207013521665 -3.922046306107732 -2.099092097830581
upperneck 14.3841089398802 -4.987035439220163 2.4276522921016346
head 7.873215832935365 -2.221646112441043 0.46388919248722704
lclavicle 1.0011171651858951e-16 1.6605366355080187e-15
lhumerus -52.149625301027775 -6.718716713100524 93.01329429291025
lradius 71.30419880003262
lwrist 33.75838869741783
lhand -30.10904676941513 8.81398728666657
lfingers 7.125019999999998
lthumb -3.870837957801629 39.177264016220334
rclavicle 1.1303166248200385e-16 1.669298579631e-15
rhumerus -36.419117574684726 13.389691908713127 -93.3561192908606
rradius 101.03043645818357
rwrist -19.34682314642592
rhand -19.300344835498965 39.41081710115785
rfingers 7.125019999999998
rthumb 6.426629089934894 10.150186950200116
48
root -0.5952718276269824 16.774745184161137 15.457907870800462 3.737742606527124 -5.910970468131841 -3.704543270191785
lfemur -33.46645223855008 15.540217848651093 -10.64585704166905
ltibia 117.60428334638614
lfoot 4.288503271454048 -10.59826607731205
ltoes -2.4836293293140503
rfemur -11.796613619325154 12.682682135795073 34.00958949885515
rtibia 55.07508790973268
rfoot -26.741411514548002 -15.63474396758198
rtoes -1.2527296470413076
lowerback 17.266860182342494 1.7717104070029102 3.0736330523893116
upperback 0.4074732780955418 3.2846620969773355 2.8992847396715566
thorax -8.635629374689092 1.4499793665976315 -0.1697996542570446
lowerneck -19.97901091018944 -4.100406388653021 -2.030325089250634
upperneck 14.005946225488403 -5.31633273457294 2.7034790074243493
head 7.8280915322535005 -2.3559600936890814 0.49859928625698446
lclavicle 1.0332506587907066e-16 1.6627394325390983e-15
lhumerus -53.9895937997282 -6.901139361330483 93.68799078270743
lradius 73.29497356582694
lwrist 34.180899897542496
lhand -29.831883483082038 10.306461226415891
lfingers 7.125019999999998
lthumb -3.536969248730365 40.6291444640933
rclavicle 1.13547299795888e-16 1.6696282576432747e-15
rhumerus -33.49529716460832 14.890265006505283 -93.06108345643347
rradius 104.91165104977351
rwrist -18.8044633623501
rhand -19.134392080200307 39.48656671940112
rfingers 7.125019999999998
rthumb 6.497022381032988 9.871268837137528
49
root -0.6052382322726622 16.8338101950326 16.37055314841374 4.037710187028381 -4.626833630330782 -3.8827544406490335
lfemur -37.68898558937172 14.399768606010987 -11.480986660536388
ltibia 115.39697145932105
lfoot 2.31152606872198 -9.474939916699615
ltoes -3.8956152656018626
rfemur -7.891886475504303 11.169434664950256 34.015959680993475
rtibia 52.53178538856926
rfoot -26.63978235284498 -15.499737795215031
rtoes -5.577940444983366
lowerback 17.08337803310484 1.7088142373171293 3.487681863741989
upperback 0.2945844342074848 3.283066094571078 2.7435522822347416
thorax -8.555540998395792 1.4461883930931037 -0.4457723788478507
lowerneck -19.814403035051583 -4.305344445934215 -2.0790145300191503
upperneck 13.487770035730977 -5.729702638491657 3.159581352621519
head 7.687140928100694 -2.5016926991086086 0.5871449620100427
lclavicle 1.0372771773324894e-16 1.663044057745985e-15
lhumerus -55.97580692598839 -7.203498319807805 94.25095031991559
lradius 76.26619774578039
lwrist 35.02754948895127
lhand -29.653402498878965 10.661449549414588
lfingers 7.125019999999998
lthumb -3.6487222415601464 39.953313413433975
rclavicle 1.1361403097880498e-16 1.669607202661484e-15
rhumerus -31.38218053407425 15.876710851715274 -92.74957551423128
rradius 109.495140616563
rwrist -18.84592040922038
rhand -18.840970840392252 39.85310442261384
rfingers 7.125019999999998
rthumb 6.564384038939282 10.36860531865689
50
root -0.6125634682076182 16.94227044783096 17.420278683894665 4.286456587260247 -4.528825811356941 -4.477089652808417
lfemur -41.38326614759946 14.384613398926398 -12.078022368376024
ltibia 111.20727581933696
lfoot 0.7432650855852496 -8.387288186815274
ltoes -5.18819080794144
rfemur -3.941579713473473 11.024696780112468 34.43477463907254
rtibia 49.275042662869275
rfoot -24.35765115426513 -14.251521791399433
rtoes -8.86101466162647
lowerback 16.880984557465766 2.0636019963003878 4.025937808071883
upperback 0.1210833453903587 3.814126312709704 2.6825947928171576
thorax -8.520809475527129 1.6678868922871162 -0.8026820631064563
lowerneck -19.85513168981018 -4.527314350829159 -2.271891741861164
upperneck 13.372092319194353 -6.081943181860806 3.739785840518216
head 7.729718970946484 -2.628398964566117 0.7500875395210458
lclavicle 1.043530119312439e-16 1.6634330430438162e-15
lhumerus -58.07846643862194 -7.784535779029383 94.94432891842447
lradius 79.58368487780027
lwrist 36.27369730384825
lhand -28.34509330939118 5.268054558873712
lfingers 7.125019999999998
lthumb -2.28651754131257 35.28517292296495
rclavicle 1.1135196944073819e-16 1.6682519878023005e-15
rhumerus -29.814863067706945 16.794177973170154 -92.38149833472792
rradius 114.01468585576265
rwrist -20.39710318819143
rhand -18.860680282280832 40.582662186886225
rfingers 7.125019999999998
rthumb 6.785505981599165 11.222804095200926
51
root -0.6066096929496778 17.074328984800935 18.407801027417765 4.776203794131617 -4.411435658736969 -4.490642586952372
lfemur -44.16407240079532 13.761978513770256 -13.36399761410317
ltibia 105.03167261639778
lfoot -0.3716955916620899 -7.73287627642028
ltoes -7.714850226175182
rfemur -0.7663084089326233 10.828775716369279 34.114698283985035
rtibia 46.12374713340682
rfoot -19.804491954358685 -12.081017187113833
rtoes -11.37856894947804
lowerback 16.055368547760573 2.412342505138857 4.358951336117584
upperback -0.022649251233267165 4.282071076054141 2.3748398919387608
thorax -8.187834539141788 1.860948629165828 -1.2170687168344334
lowerneck -19.708719454922278 -4.5715189249114205 -2.179203022801026
upperneck 13.402875469343558 -6.181502497243734 3.8202414853547553
head 7.773070550941307 -2.651478620746756 0.7787753566734338
lclavicle 1.0803750487229565e-16 1.6659443486062725e-15
lhumerus -59.92717826859592 -7.837384290393056 95.3065452044447
lradius 82.16716834932348
lwrist 37.26072739437959
lhand -27.329734435636098 4.444750684735518
lfingers 7.125019999999998
lthumb -0.670751685698449 35.38714011453939
rclavicle 1.1687077527833958e-16 1.6719292073814428e-15
rhumerus -28.91817287631774 17.468308626801527 -92.05843483640618
rradius 117.77802166097432
rwrist -20.608016329067357
rhand -19.11191544423069 41.32980234353638
rfingers 7.125019999999998
rthumb 6.692841886887291 13.006245129576893
52
root -0.5784330015008966 17.274760201033725 19.15283256072139 5.419715804129626 -4.12644964454213 -4.37696615105767
lfemur -45.65226191743231 12.717760888420528 -14.619680016732413
ltibia 97.12240650965248
lfoot -1.0846632996147876 -7.597471808789443
ltoes -10.786878943903659
rfemur 2.2020459168057 10.70186359687304 33.758391680132256
rtibia 43.00032689780873
rfoot -13.562940657848593 -9.57956391517442
rtoes -12.967572091017935
lowerback 14.944038519130821 2.6724490387281996 4.847587351206127
upperback -0.3094858853329644 4.554666519303321 1.965755444874815
thorax -7.89832747671343 1.9238219585103067 -1.6568353044684347
lowerneck -19.330696381536765 -4.69254612300033 -2.2797897162863503
upperneck 13.51231751872821 -6.393910550432658 4.208110938227951
head 7.791087972172485 -2.7288354105506136 0.8928676273901048
lclavicle 1.0716125410299198e-16 1.665324654451007e-15
lhumerus -61.78488208707779 -7.595750980780107 95.27220043681052
lradius 84.23238918694923
lwrist 37.360260388640356
lhand -26.31053716750162 1.6299271465895413
lfingers 7.125019999999998
lthumb 0.12104928387640657 32.46024179762135
rclavicle 1.1632488872928344e-16 1.6711817765024623e-15
rhumerus -28.40848121899321 17.965639174246107 -91.75118962393
rradius 120.43750170301274
rwrist -20.092380399543373
rhand -19.104214034643647 41.779412706533776
rfingers 7.125019999999998
rthumb 6.489256496756298 13.631156527588905
53
root -0.5489426275854876 17.488069864833466 20.296220091113874 5.29413675294733 -3.1654461875178734 -4.030014487547336
lfemur -46.12648235366572 10.90263900604062 -15.956193445295003
ltibia 87.9205825840925
lfoot -0.6136704813234521 -8.280143303074132
ltoes -11.72350796256885
rfemur 5.905666206245163 9.63078664272495 33.34937498756524
rtibia 39.23104415417588
rfoot -4.8974982470812 -7.5096668688284085
rtoes -9.731613499693331
lowerback 14.61909241044798 2.6678193797534133 5.348368726945232
upperback -0.4304515530979306 4.557078629829414 1.5923619555297197
thorax -7.867441314895883 1.8972162990375288 -2.0521465030391015
lowerneck -18.97652192923054 -4.697389469671686 -2.2480513322195375
upperneck 13.7467648956259 -6.4376549825785245 4.204122136536343
head 7.839724741708496 -2.741834637156672 0.9039175512263544
lclavicle 1.072969596432886e-16 1.6654098103549507e-15
lhumerus -63.572386526557096 -6.935371945576617 94.96804949262912
lradius 85.90632005661453
lwrist 37.43941659680424
lhand -25.315302715199557 0.6412785941233738
lfingers 7.125019999999998
lthumb 0.9281107524130072 30.413148858670663
rclavicle 1.16903273706559e-16 1.6714253067050026e-15
rhumerus -28.66822418843443 18.377911143301525 -91.59013438012042
rradius 122.36158186871154
rwrist -20.246440411187212
rhand -19.03062221373168 41.45032209724671
rfingers 7.125019999999998
rthumb 6.384916028410076 12.539190705588954
